<?xml version="1.0" encoding="UTF-8" standalone="no"?>
<!DOCTYPE svg PUBLIC "-//W3C//DTD SVG 1.1//EN"
 "http://www.w3.org/Graphics/SVG/1.1/DTD/svg11.dtd">
<!-- Generated by graphviz version 2.38.0 (20140413.2041)
 -->
<!-- Title: network_graph Pages: 1 -->
<svg width="692pt" height="1239pt"
 viewBox="0.00 0.00 692.03 1239.00" xmlns="http://www.w3.org/2000/svg" xmlns:xlink="http://www.w3.org/1999/xlink">
<g id="graph0" class="graph" transform="scale(1 1) rotate(0) translate(4 1235)">
<title>network_graph</title>
<polygon fill="white" stroke="none" points="-4,4 -4,-1235 688.035,-1235 688.035,4 -4,4"/>
<!-- Block4308 -->
<g id="node1" class="node"><title>Block4308</title>
<polygon fill="lightgray" stroke="black" stroke-width="4" points="173,-191 79,-191 79,-119 173,-119 173,-191"/>
<text text-anchor="middle" x="126" y="-158.4" font-family="Times New Roman,serif" font-size="12.00">Dense</text>
<text text-anchor="middle" x="126" y="-145.4" font-family="Times New Roman,serif" font-size="12.00">classify()</text>
</g>
<!-- Block4308_Output_0 -->
<g id="node5" class="node"><title>Block4308_Output_0</title>
<polygon fill="lightgray" stroke="black" stroke-width="4" points="130.633,-0.0986735 133.701,-0.29575 136.737,-0.590689 139.729,-0.982683 142.664,-1.47066 145.532,-2.05327 148.32,-2.72894 151.018,-3.49579 153.615,-4.35174 156.103,-5.29443 158.471,-6.32129 160.713,-7.42949 162.819,-8.616 164.784,-9.87757 166.602,-11.2107 168.268,-12.6119 169.777,-14.0771 171.126,-15.6024 172.314,-17.1836 173.338,-18.8164 174.198,-20.4963 174.895,-22.2187 175.428,-23.9788 175.799,-25.7719 176.012,-27.5931 176.07,-29.4373 175.975,-31.2994 175.733,-33.1745 175.348,-35.0573 174.826,-36.9427 174.172,-38.8255 173.392,-40.7006 172.493,-42.5627 171.481,-44.4069 170.364,-46.2281 169.147,-48.0212 167.837,-49.7813 166.442,-51.5037 164.968,-53.1836 163.421,-54.8164 161.809,-56.3976 160.136,-57.9229 158.41,-59.3881 156.635,-60.7893 154.817,-62.1224 152.961,-63.384 151.072,-64.5705 149.154,-65.6787 147.21,-66.7056 145.245,-67.6483 143.261,-68.5042 141.262,-69.2711 139.251,-69.9467 137.228,-70.5293 135.197,-71.0173 133.16,-71.4093 131.118,-71.7042 129.072,-71.9013 127.024,-72 124.976,-72 122.928,-71.9013 120.882,-71.7042 118.84,-71.4093 116.803,-71.0173 114.772,-70.5293 112.749,-69.9467 110.738,-69.2711 108.739,-68.5042 106.755,-67.6483 104.79,-66.7056 102.846,-65.6787 100.928,-64.5705 99.0386,-63.384 97.1827,-62.1224 95.3649,-60.7893 93.5901,-59.3881 91.8637,-57.9229 90.1912,-56.3976 88.5786,-54.8164 87.0321,-53.1836 85.5579,-51.5037 84.1628,-49.7813 82.8533,-48.0212 81.6363,-46.2281 80.5186,-44.4069 79.5069,-42.5627 78.608,-40.7006 77.8284,-38.8255 77.1743,-36.9427 76.652,-35.0573 76.267,-33.1745 76.0248,-31.2994 75.9302,-29.4373 75.9875,-27.5931 76.2005,-25.7719 76.5723,-23.9788 77.1055,-22.2187 77.8016,-20.4963 78.6616,-18.8164 79.6859,-17.1836 80.8735,-15.6024 82.2232,-14.0771 83.7324,-12.6119 85.398,-11.2107 87.2158,-9.87757 89.1809,-8.616 91.2873,-7.42949 93.5285,-6.32129 95.897,-5.29443 98.3845,-4.35174 100.982,-3.49579 103.68,-2.72894 106.468,-2.05327 109.336,-1.47066 112.271,-0.982683 115.263,-0.590689 118.299,-0.29575 121.367,-0.0986735 124.453,-3.55271e-013 127.547,-3.69482e-013 130.633,-0.0986735"/>
<text text-anchor="middle" x="126" y="-39.4" font-family="Times New Roman,serif" font-size="12.00">classify</text>
<text text-anchor="middle" x="126" y="-26.4" font-family="Times New Roman,serif" font-size="12.00">[#](10,)</text>
</g>
<!-- Block4308&#45;&gt;Block4308_Output_0 -->
<g id="edge4" class="edge"><title>Block4308&#45;&gt;Block4308_Output_0</title>
<path fill="none" stroke="black" d="M126,-118.896C126,-107.327 126,-94.2965 126,-82.0893"/>
<polygon fill="black" stroke="black" points="129.5,-82.079 126,-72.0791 122.5,-82.0791 129.5,-82.079"/>
<text text-anchor="middle" x="140.5" y="-93" font-family="Times New Roman,serif" font-size="10.00">[#](10,)</text>
</g>
<!-- Parameter3928 -->
<g id="node2" class="node"><title>Parameter3928</title>
<polygon fill="lightgray" stroke="black" points="72,-306.5 0,-306.5 0,-263.5 72,-263.5 72,-306.5"/>
<text text-anchor="middle" x="36" y="-288.4" font-family="Times New Roman,serif" font-size="12.00">W</text>
<text text-anchor="middle" x="36" y="-275.4" font-family="Times New Roman,serif" font-size="12.00">(64, 10)</text>
</g>
<!-- Parameter3928&#45;&gt;Block4308 -->
<g id="edge1" class="edge"><title>Parameter3928&#45;&gt;Block4308</title>
<path fill="none" stroke="black" d="M50.4601,-263.435C62.5672,-246.216 80.2586,-221.054 95.4775,-199.41"/>
<polygon fill="black" stroke="black" points="98.4998,-201.196 101.389,-191.003 92.7736,-197.17 98.4998,-201.196"/>
<text text-anchor="middle" x="100.5" y="-223" font-family="Times New Roman,serif" font-size="10.00">W</text>
<text text-anchor="middle" x="100.5" y="-212" font-family="Times New Roman,serif" font-size="10.00">(64, 10)</text>
</g>
<!-- Parameter3929 -->
<g id="node3" class="node"><title>Parameter3929</title>
<polygon fill="lightgray" stroke="black" points="162,-306.5 90,-306.5 90,-263.5 162,-263.5 162,-306.5"/>
<text text-anchor="middle" x="126" y="-288.4" font-family="Times New Roman,serif" font-size="12.00">b</text>
<text text-anchor="middle" x="126" y="-275.4" font-family="Times New Roman,serif" font-size="12.00">(10,)</text>
</g>
<!-- Parameter3929&#45;&gt;Block4308 -->
<g id="edge2" class="edge"><title>Parameter3929&#45;&gt;Block4308</title>
<path fill="none" stroke="black" d="M126,-263.435C126,-246.673 126,-222.385 126,-201.141"/>
<polygon fill="black" stroke="black" points="129.5,-201.003 126,-191.003 122.5,-201.003 129.5,-201.003"/>
<text text-anchor="middle" x="135" y="-223" font-family="Times New Roman,serif" font-size="10.00">b</text>
<text text-anchor="middle" x="135" y="-212" font-family="Times New Roman,serif" font-size="10.00">(10,)</text>
</g>
<!-- Block4293 -->
<g id="node4" class="node"><title>Block4293</title>
<polygon fill="lightgray" stroke="black" stroke-width="4" points="274,-321 180,-321 180,-249 274,-249 274,-321"/>
<text text-anchor="middle" x="227" y="-288.4" font-family="Times New Roman,serif" font-size="12.00">Dense</text>
<text text-anchor="middle" x="227" y="-275.4" font-family="Times New Roman,serif" font-size="12.00">fc1()</text>
</g>
<!-- Block4293&#45;&gt;Block4308 -->
<g id="edge3" class="edge"><title>Block4293&#45;&gt;Block4308</title>
<path fill="none" stroke="black" d="M199.134,-248.685C187.101,-233.435 172.907,-215.446 160.24,-199.393"/>
<polygon fill="black" stroke="black" points="162.717,-196.882 153.775,-191.2 157.222,-201.219 162.717,-196.882"/>
<text text-anchor="middle" x="196.5" y="-223" font-family="Times New Roman,serif" font-size="10.00">fc1</text>
<text text-anchor="middle" x="196.5" y="-212" font-family="Times New Roman,serif" font-size="10.00">[#](64,)</text>
</g>
<!-- Parameter3908 -->
<g id="node6" class="node"><title>Parameter3908</title>
<polygon fill="lightgray" stroke="black" points="173,-436.5 95,-436.5 95,-393.5 173,-393.5 173,-436.5"/>
<text text-anchor="middle" x="134" y="-418.4" font-family="Times New Roman,serif" font-size="12.00">W</text>
<text text-anchor="middle" x="134" y="-405.4" font-family="Times New Roman,serif" font-size="12.00">(64, 3, 3, 64)</text>
</g>
<!-- Parameter3908&#45;&gt;Block4293 -->
<g id="edge5" class="edge"><title>Parameter3908&#45;&gt;Block4293</title>
<path fill="none" stroke="black" d="M143.73,-393.405C151.507,-377.831 163.195,-356.258 176,-339 178.525,-335.597 181.253,-332.185 184.088,-328.824"/>
<polygon fill="black" stroke="black" points="186.895,-330.931 190.853,-321.103 181.63,-326.318 186.895,-330.931"/>
<text text-anchor="middle" x="199.5" y="-353" font-family="Times New Roman,serif" font-size="10.00">W</text>
<text text-anchor="middle" x="199.5" y="-342" font-family="Times New Roman,serif" font-size="10.00">(64, 3, 3, 64)</text>
</g>
<!-- Parameter3909 -->
<g id="node7" class="node"><title>Parameter3909</title>
<polygon fill="lightgray" stroke="black" points="263,-436.5 191,-436.5 191,-393.5 263,-393.5 263,-436.5"/>
<text text-anchor="middle" x="227" y="-418.4" font-family="Times New Roman,serif" font-size="12.00">b</text>
<text text-anchor="middle" x="227" y="-405.4" font-family="Times New Roman,serif" font-size="12.00">(64,)</text>
</g>
<!-- Parameter3909&#45;&gt;Block4293 -->
<g id="edge6" class="edge"><title>Parameter3909&#45;&gt;Block4293</title>
<path fill="none" stroke="black" d="M227,-393.435C227,-376.673 227,-352.385 227,-331.141"/>
<polygon fill="black" stroke="black" points="230.5,-331.003 227,-321.003 223.5,-331.003 230.5,-331.003"/>
<text text-anchor="middle" x="236" y="-353" font-family="Times New Roman,serif" font-size="10.00">b</text>
<text text-anchor="middle" x="236" y="-342" font-family="Times New Roman,serif" font-size="10.00">(64,)</text>
</g>
<!-- Block4277 -->
<g id="node8" class="node"><title>Block4277</title>
<polygon fill="lightgray" stroke="black" stroke-width="4" points="375,-451 281,-451 281,-379 375,-379 375,-451"/>
<text text-anchor="middle" x="328" y="-418.4" font-family="Times New Roman,serif" font-size="12.00">MaxPooling</text>
<text text-anchor="middle" x="328" y="-405.4" font-family="Times New Roman,serif" font-size="12.00">pool3()</text>
</g>
<!-- Block4277&#45;&gt;Block4293 -->
<g id="edge7" class="edge"><title>Block4277&#45;&gt;Block4293</title>
<path fill="none" stroke="black" d="M300.134,-378.685C288.101,-363.435 273.907,-345.446 261.24,-329.393"/>
<polygon fill="black" stroke="black" points="263.717,-326.882 254.775,-321.2 258.222,-331.219 263.717,-326.882"/>
<text text-anchor="middle" x="305.5" y="-353" font-family="Times New Roman,serif" font-size="10.00">pool3</text>
<text text-anchor="middle" x="305.5" y="-342" font-family="Times New Roman,serif" font-size="10.00">[#](64, 3, 3)</text>
</g>
<!-- Block4265 -->
<g id="node9" class="node"><title>Block4265</title>
<polygon fill="lightgray" stroke="black" stroke-width="4" points="375,-581 281,-581 281,-509 375,-509 375,-581"/>
<text text-anchor="middle" x="328" y="-548.4" font-family="Times New Roman,serif" font-size="12.00">Convolution</text>
<text text-anchor="middle" x="328" y="-535.4" font-family="Times New Roman,serif" font-size="12.00">conv3()</text>
</g>
<!-- Block4265&#45;&gt;Block4277 -->
<g id="edge8" class="edge"><title>Block4265&#45;&gt;Block4277</title>
<path fill="none" stroke="black" d="M328,-508.685C328,-494.135 328,-477.091 328,-461.614"/>
<polygon fill="black" stroke="black" points="331.5,-461.2 328,-451.2 324.5,-461.2 331.5,-461.2"/>
<text text-anchor="middle" x="350.5" y="-483" font-family="Times New Roman,serif" font-size="10.00">conv3</text>
<text text-anchor="middle" x="350.5" y="-472" font-family="Times New Roman,serif" font-size="10.00">[#](64, 7, 7)</text>
</g>
<!-- Parameter3560 -->
<g id="node10" class="node"><title>Parameter3560</title>
<polygon fill="lightgray" stroke="black" points="274,-696.5 196,-696.5 196,-653.5 274,-653.5 274,-696.5"/>
<text text-anchor="middle" x="235" y="-678.4" font-family="Times New Roman,serif" font-size="12.00">W</text>
<text text-anchor="middle" x="235" y="-665.4" font-family="Times New Roman,serif" font-size="12.00">(64, 32, 5, 5)</text>
</g>
<!-- Parameter3560&#45;&gt;Block4265 -->
<g id="edge9" class="edge"><title>Parameter3560&#45;&gt;Block4265</title>
<path fill="none" stroke="black" d="M244.73,-653.405C252.507,-637.831 264.195,-616.258 277,-599 279.525,-595.597 282.253,-592.185 285.088,-588.824"/>
<polygon fill="black" stroke="black" points="287.895,-590.931 291.853,-581.103 282.63,-586.318 287.895,-590.931"/>
<text text-anchor="middle" x="300.5" y="-613" font-family="Times New Roman,serif" font-size="10.00">W</text>
<text text-anchor="middle" x="300.5" y="-602" font-family="Times New Roman,serif" font-size="10.00">(64, 32, 5, 5)</text>
</g>
<!-- Parameter3561 -->
<g id="node11" class="node"><title>Parameter3561</title>
<polygon fill="lightgray" stroke="black" points="364,-696.5 292,-696.5 292,-653.5 364,-653.5 364,-696.5"/>
<text text-anchor="middle" x="328" y="-678.4" font-family="Times New Roman,serif" font-size="12.00">b</text>
<text text-anchor="middle" x="328" y="-665.4" font-family="Times New Roman,serif" font-size="12.00">(64, 1, 1)</text>
</g>
<!-- Parameter3561&#45;&gt;Block4265 -->
<g id="edge10" class="edge"><title>Parameter3561&#45;&gt;Block4265</title>
<path fill="none" stroke="black" d="M328,-653.435C328,-636.673 328,-612.385 328,-591.141"/>
<polygon fill="black" stroke="black" points="331.5,-591.003 328,-581.003 324.5,-591.003 331.5,-591.003"/>
<text text-anchor="middle" x="345" y="-613" font-family="Times New Roman,serif" font-size="10.00">b</text>
<text text-anchor="middle" x="345" y="-602" font-family="Times New Roman,serif" font-size="10.00">(64, 1, 1)</text>
</g>
<!-- Block4249 -->
<g id="node12" class="node"><title>Block4249</title>
<polygon fill="lightgray" stroke="black" stroke-width="4" points="476,-711 382,-711 382,-639 476,-639 476,-711"/>
<text text-anchor="middle" x="429" y="-678.4" font-family="Times New Roman,serif" font-size="12.00">MaxPooling</text>
<text text-anchor="middle" x="429" y="-665.4" font-family="Times New Roman,serif" font-size="12.00">pool2()</text>
</g>
<!-- Block4249&#45;&gt;Block4265 -->
<g id="edge11" class="edge"><title>Block4249&#45;&gt;Block4265</title>
<path fill="none" stroke="black" d="M401.134,-638.685C389.101,-623.435 374.907,-605.446 362.24,-589.393"/>
<polygon fill="black" stroke="black" points="364.717,-586.882 355.775,-581.2 359.222,-591.219 364.717,-586.882"/>
<text text-anchor="middle" x="406.5" y="-613" font-family="Times New Roman,serif" font-size="10.00">pool2</text>
<text text-anchor="middle" x="406.5" y="-602" font-family="Times New Roman,serif" font-size="10.00">[#](32, 7, 7)</text>
</g>
<!-- Block4237 -->
<g id="node13" class="node"><title>Block4237</title>
<polygon fill="lightgray" stroke="black" stroke-width="4" points="476,-841 382,-841 382,-769 476,-769 476,-841"/>
<text text-anchor="middle" x="429" y="-808.4" font-family="Times New Roman,serif" font-size="12.00">Convolution</text>
<text text-anchor="middle" x="429" y="-795.4" font-family="Times New Roman,serif" font-size="12.00">conv2()</text>
</g>
<!-- Block4237&#45;&gt;Block4249 -->
<g id="edge12" class="edge"><title>Block4237&#45;&gt;Block4249</title>
<path fill="none" stroke="black" d="M429,-768.685C429,-754.135 429,-737.091 429,-721.614"/>
<polygon fill="black" stroke="black" points="432.5,-721.2 429,-711.2 425.5,-721.2 432.5,-721.2"/>
<text text-anchor="middle" x="456" y="-743" font-family="Times New Roman,serif" font-size="10.00">conv2</text>
<text text-anchor="middle" x="456" y="-732" font-family="Times New Roman,serif" font-size="10.00">[#](32, 15, 15)</text>
</g>
<!-- Parameter3530 -->
<g id="node14" class="node"><title>Parameter3530</title>
<polygon fill="lightgray" stroke="black" points="375,-956.5 297,-956.5 297,-913.5 375,-913.5 375,-956.5"/>
<text text-anchor="middle" x="336" y="-938.4" font-family="Times New Roman,serif" font-size="12.00">W</text>
<text text-anchor="middle" x="336" y="-925.4" font-family="Times New Roman,serif" font-size="12.00">(32, 32, 5, 5)</text>
</g>
<!-- Parameter3530&#45;&gt;Block4237 -->
<g id="edge13" class="edge"><title>Parameter3530&#45;&gt;Block4237</title>
<path fill="none" stroke="black" d="M345.73,-913.405C353.507,-897.831 365.195,-876.258 378,-859 380.525,-855.597 383.253,-852.185 386.088,-848.824"/>
<polygon fill="black" stroke="black" points="388.895,-850.931 392.853,-841.103 383.63,-846.318 388.895,-850.931"/>
<text text-anchor="middle" x="401.5" y="-873" font-family="Times New Roman,serif" font-size="10.00">W</text>
<text text-anchor="middle" x="401.5" y="-862" font-family="Times New Roman,serif" font-size="10.00">(32, 32, 5, 5)</text>
</g>
<!-- Parameter3531 -->
<g id="node15" class="node"><title>Parameter3531</title>
<polygon fill="lightgray" stroke="black" points="465,-956.5 393,-956.5 393,-913.5 465,-913.5 465,-956.5"/>
<text text-anchor="middle" x="429" y="-938.4" font-family="Times New Roman,serif" font-size="12.00">b</text>
<text text-anchor="middle" x="429" y="-925.4" font-family="Times New Roman,serif" font-size="12.00">(32, 1, 1)</text>
</g>
<!-- Parameter3531&#45;&gt;Block4237 -->
<g id="edge14" class="edge"><title>Parameter3531&#45;&gt;Block4237</title>
<path fill="none" stroke="black" d="M429,-913.435C429,-896.673 429,-872.385 429,-851.141"/>
<polygon fill="black" stroke="black" points="432.5,-851.003 429,-841.003 425.5,-851.003 432.5,-851.003"/>
<text text-anchor="middle" x="446" y="-873" font-family="Times New Roman,serif" font-size="10.00">b</text>
<text text-anchor="middle" x="446" y="-862" font-family="Times New Roman,serif" font-size="10.00">(32, 1, 1)</text>
</g>
<!-- Block4221 -->
<g id="node16" class="node"><title>Block4221</title>
<polygon fill="lightgray" stroke="black" stroke-width="4" points="577,-971 483,-971 483,-899 577,-899 577,-971"/>
<text text-anchor="middle" x="530" y="-938.4" font-family="Times New Roman,serif" font-size="12.00">MaxPooling</text>
<text text-anchor="middle" x="530" y="-925.4" font-family="Times New Roman,serif" font-size="12.00">pool1()</text>
</g>
<!-- Block4221&#45;&gt;Block4237 -->
<g id="edge15" class="edge"><title>Block4221&#45;&gt;Block4237</title>
<path fill="none" stroke="black" d="M502.134,-898.685C490.101,-883.435 475.907,-865.446 463.24,-849.393"/>
<polygon fill="black" stroke="black" points="465.717,-846.882 456.775,-841.2 460.222,-851.219 465.717,-846.882"/>
<text text-anchor="middle" x="512" y="-873" font-family="Times New Roman,serif" font-size="10.00">pool1</text>
<text text-anchor="middle" x="512" y="-862" font-family="Times New Roman,serif" font-size="10.00">[#](32, 15, 15)</text>
</g>
<!-- Block4209 -->
<g id="node17" class="node"><title>Block4209</title>
<polygon fill="lightgray" stroke="black" stroke-width="4" points="577,-1101 483,-1101 483,-1029 577,-1029 577,-1101"/>
<text text-anchor="middle" x="530" y="-1068.4" font-family="Times New Roman,serif" font-size="12.00">Convolution</text>
<text text-anchor="middle" x="530" y="-1055.4" font-family="Times New Roman,serif" font-size="12.00">conv1()</text>
</g>
<!-- Block4209&#45;&gt;Block4221 -->
<g id="edge16" class="edge"><title>Block4209&#45;&gt;Block4221</title>
<path fill="none" stroke="black" d="M530,-1028.68C530,-1014.13 530,-997.091 530,-981.614"/>
<polygon fill="black" stroke="black" points="533.5,-981.2 530,-971.2 526.5,-981.2 533.5,-981.2"/>
<text text-anchor="middle" x="557" y="-1003" font-family="Times New Roman,serif" font-size="10.00">conv1</text>
<text text-anchor="middle" x="557" y="-992" font-family="Times New Roman,serif" font-size="10.00">[#](32, 32, 32)</text>
</g>
<!-- Parameter3500 -->
<g id="node18" class="node"><title>Parameter3500</title>
<polygon fill="lightgray" stroke="black" points="476,-1216.5 404,-1216.5 404,-1173.5 476,-1173.5 476,-1216.5"/>
<text text-anchor="middle" x="440" y="-1198.4" font-family="Times New Roman,serif" font-size="12.00">W</text>
<text text-anchor="middle" x="440" y="-1185.4" font-family="Times New Roman,serif" font-size="12.00">(32, 3, 5, 5)</text>
</g>
<!-- Parameter3500&#45;&gt;Block4209 -->
<g id="edge17" class="edge"><title>Parameter3500&#45;&gt;Block4209</title>
<path fill="none" stroke="black" d="M450.418,-1173.25C458.527,-1157.79 470.476,-1136.43 483,-1119 485.422,-1115.63 488.022,-1112.23 490.711,-1108.86"/>
<polygon fill="black" stroke="black" points="493.451,-1111.04 497.107,-1101.09 488.048,-1106.59 493.451,-1111.04"/>
<text text-anchor="middle" x="504.5" y="-1133" font-family="Times New Roman,serif" font-size="10.00">W</text>
<text text-anchor="middle" x="504.5" y="-1122" font-family="Times New Roman,serif" font-size="10.00">(32, 3, 5, 5)</text>
</g>
<!-- Parameter3501 -->
<g id="node19" class="node"><title>Parameter3501</title>
<polygon fill="lightgray" stroke="black" points="566,-1216.5 494,-1216.5 494,-1173.5 566,-1173.5 566,-1216.5"/>
<text text-anchor="middle" x="530" y="-1198.4" font-family="Times New Roman,serif" font-size="12.00">b</text>
<text text-anchor="middle" x="530" y="-1185.4" font-family="Times New Roman,serif" font-size="12.00">(32, 1, 1)</text>
</g>
<!-- Parameter3501&#45;&gt;Block4209 -->
<g id="edge18" class="edge"><title>Parameter3501&#45;&gt;Block4209</title>
<path fill="none" stroke="black" d="M530,-1173.43C530,-1156.67 530,-1132.38 530,-1111.14"/>
<polygon fill="black" stroke="black" points="533.5,-1111 530,-1101 526.5,-1111 533.5,-1111"/>
<text text-anchor="middle" x="547" y="-1133" font-family="Times New Roman,serif" font-size="10.00">b</text>
<text text-anchor="middle" x="547" y="-1122" font-family="Times New Roman,serif" font-size="10.00">(32, 1, 1)</text>
</g>
<!-- Input3499 -->
<g id="node20" class="node"><title>Input3499</title>
<polygon fill="lightgray" stroke="black" stroke-width="4" points="638.633,-1159.1 641.701,-1159.3 644.737,-1159.59 647.729,-1159.98 650.664,-1160.47 653.532,-1161.05 656.32,-1161.73 659.018,-1162.5 661.615,-1163.35 664.103,-1164.29 666.471,-1165.32 668.713,-1166.43 670.819,-1167.62 672.784,-1168.88 674.602,-1170.21 676.268,-1171.61 677.777,-1173.08 679.126,-1174.6 680.314,-1176.18 681.338,-1177.82 682.198,-1179.5 682.895,-1181.22 683.428,-1182.98 683.799,-1184.77 684.012,-1186.59 684.07,-1188.44 683.975,-1190.3 683.733,-1192.17 683.348,-1194.06 682.826,-1195.94 682.172,-1197.83 681.392,-1199.7 680.493,-1201.56 679.481,-1203.41 678.364,-1205.23 677.147,-1207.02 675.837,-1208.78 674.442,-1210.5 672.968,-1212.18 671.421,-1213.82 669.809,-1215.4 668.136,-1216.92 666.41,-1218.39 664.635,-1219.79 662.817,-1221.12 660.961,-1222.38 659.072,-1223.57 657.154,-1224.68 655.21,-1225.71 653.245,-1226.65 651.261,-1227.5 649.262,-1228.27 647.251,-1228.95 645.228,-1229.53 643.197,-1230.02 641.16,-1230.41 639.118,-1230.7 637.072,-1230.9 635.024,-1231 632.976,-1231 630.928,-1230.9 628.882,-1230.7 626.84,-1230.41 624.803,-1230.02 622.772,-1229.53 620.749,-1228.95 618.738,-1228.27 616.739,-1227.5 614.755,-1226.65 612.79,-1225.71 610.846,-1224.68 608.928,-1223.57 607.039,-1222.38 605.183,-1221.12 603.365,-1219.79 601.59,-1218.39 599.864,-1216.92 598.191,-1215.4 596.579,-1213.82 595.032,-1212.18 593.558,-1210.5 592.163,-1208.78 590.853,-1207.02 589.636,-1205.23 588.519,-1203.41 587.507,-1201.56 586.608,-1199.7 585.828,-1197.83 585.174,-1195.94 584.652,-1194.06 584.267,-1192.17 584.025,-1190.3 583.93,-1188.44 583.988,-1186.59 584.201,-1184.77 584.572,-1182.98 585.105,-1181.22 585.802,-1179.5 586.662,-1177.82 587.686,-1176.18 588.874,-1174.6 590.223,-1173.08 591.732,-1171.61 593.398,-1170.21 595.216,-1168.88 597.181,-1167.62 599.287,-1166.43 601.529,-1165.32 603.897,-1164.29 606.385,-1163.35 608.982,-1162.5 611.68,-1161.73 614.468,-1161.05 617.336,-1160.47 620.271,-1159.98 623.263,-1159.59 626.299,-1159.3 629.367,-1159.1 632.453,-1159 635.547,-1159 638.633,-1159.1"/>
<text text-anchor="middle" x="634" y="-1198.4" font-family="Times New Roman,serif" font-size="12.00">Input</text>
<text text-anchor="middle" x="634" y="-1185.4" font-family="Times New Roman,serif" font-size="12.00">[#](3, 32, 32)</text>
</g>
<!-- Input3499&#45;&gt;Block4209 -->
<g id="edge19" class="edge"><title>Input3499&#45;&gt;Block4209</title>
<path fill="none" stroke="black" d="M608.292,-1162.36C595.252,-1146.31 579.217,-1126.58 565.063,-1109.15"/>
<polygon fill="black" stroke="black" points="567.731,-1106.89 558.709,-1101.33 562.298,-1111.3 567.731,-1106.89"/>
<text text-anchor="middle" x="612.5" y="-1133" font-family="Times New Roman,serif" font-size="10.00">Input3499</text>
<text text-anchor="middle" x="612.5" y="-1122" font-family="Times New Roman,serif" font-size="10.00">[#](3, 32, 32)</text>
</g>
</g>
</svg>
